<mxfile host="app.diagrams.net" modified="2023-11-09T20:47:36.641Z" agent="Mozilla/5.0 (Macintosh; Intel Mac OS X 10_15_7) AppleWebKit/537.36 (KHTML, like Gecko) Chrome/119.0.0.0 Safari/537.36" etag="u8Jycg3RacHTPyC4vu-W" version="22.1.0" type="device">
  <diagram name="Trang-1" id="hRIdS6yLDwZR9YRnMDoe">
    <mxGraphModel dx="756" dy="765" grid="1" gridSize="10" guides="1" tooltips="1" connect="1" arrows="1" fold="1" page="1" pageScale="1" pageWidth="827" pageHeight="1169" math="0" shadow="0">
      <root>
        <mxCell id="0" />
        <mxCell id="1" parent="0" />
        <mxCell id="Ybw5_b32brrb-YPpIU1Y-28" style="edgeStyle=orthogonalEdgeStyle;rounded=0;orthogonalLoop=1;jettySize=auto;html=1;entryX=0.5;entryY=0;entryDx=0;entryDy=0;" edge="1" parent="1" source="Ybw5_b32brrb-YPpIU1Y-1" target="Ybw5_b32brrb-YPpIU1Y-2">
          <mxGeometry relative="1" as="geometry" />
        </mxCell>
        <mxCell id="Ybw5_b32brrb-YPpIU1Y-1" value="Start" style="ellipse;whiteSpace=wrap;html=1;" vertex="1" parent="1">
          <mxGeometry x="270" y="30" width="120" height="80" as="geometry" />
        </mxCell>
        <mxCell id="Ybw5_b32brrb-YPpIU1Y-29" style="edgeStyle=orthogonalEdgeStyle;rounded=0;orthogonalLoop=1;jettySize=auto;html=1;entryX=0.5;entryY=0;entryDx=0;entryDy=0;" edge="1" parent="1" source="Ybw5_b32brrb-YPpIU1Y-2" target="Ybw5_b32brrb-YPpIU1Y-3">
          <mxGeometry relative="1" as="geometry" />
        </mxCell>
        <mxCell id="Ybw5_b32brrb-YPpIU1Y-2" value="edge1,edge2,edge3" style="shape=parallelogram;perimeter=parallelogramPerimeter;whiteSpace=wrap;html=1;fixedSize=1;" vertex="1" parent="1">
          <mxGeometry x="270" y="160" width="120" height="60" as="geometry" />
        </mxCell>
        <mxCell id="Ybw5_b32brrb-YPpIU1Y-22" style="edgeStyle=orthogonalEdgeStyle;rounded=0;orthogonalLoop=1;jettySize=auto;html=1;" edge="1" parent="1" source="Ybw5_b32brrb-YPpIU1Y-3" target="Ybw5_b32brrb-YPpIU1Y-5">
          <mxGeometry relative="1" as="geometry" />
        </mxCell>
        <mxCell id="Ybw5_b32brrb-YPpIU1Y-30" style="edgeStyle=orthogonalEdgeStyle;rounded=0;orthogonalLoop=1;jettySize=auto;html=1;entryX=0.5;entryY=0;entryDx=0;entryDy=0;" edge="1" parent="1" source="Ybw5_b32brrb-YPpIU1Y-3" target="Ybw5_b32brrb-YPpIU1Y-11">
          <mxGeometry relative="1" as="geometry" />
        </mxCell>
        <mxCell id="Ybw5_b32brrb-YPpIU1Y-3" value="&lt;div style=&quot;background-color: rgb(255, 255, 255); font-family: Menlo, Monaco, &amp;quot;Courier New&amp;quot;, monospace; line-height: 18px;&quot;&gt;edge1 = edge2 &amp;amp;&amp;amp; edge2 = edge3&lt;/div&gt;" style="rhombus;whiteSpace=wrap;html=1;" vertex="1" parent="1">
          <mxGeometry x="195" y="280" width="270" height="190" as="geometry" />
        </mxCell>
        <mxCell id="Ybw5_b32brrb-YPpIU1Y-44" style="edgeStyle=orthogonalEdgeStyle;rounded=0;orthogonalLoop=1;jettySize=auto;html=1;" edge="1" parent="1" source="Ybw5_b32brrb-YPpIU1Y-5">
          <mxGeometry relative="1" as="geometry">
            <mxPoint x="800" y="390" as="sourcePoint" />
            <mxPoint x="960" y="2360" as="targetPoint" />
          </mxGeometry>
        </mxCell>
        <mxCell id="Ybw5_b32brrb-YPpIU1Y-5" value="tam giác thường" style="shape=parallelogram;perimeter=parallelogramPerimeter;whiteSpace=wrap;html=1;fixedSize=1;" vertex="1" parent="1">
          <mxGeometry x="630" y="315" width="120" height="60" as="geometry" />
        </mxCell>
        <mxCell id="Ybw5_b32brrb-YPpIU1Y-7" value="tam giác vuông" style="shape=parallelogram;perimeter=parallelogramPerimeter;whiteSpace=wrap;html=1;fixedSize=1;" vertex="1" parent="1">
          <mxGeometry x="740" y="630" width="120" height="60" as="geometry" />
        </mxCell>
        <mxCell id="Ybw5_b32brrb-YPpIU1Y-52" style="edgeStyle=orthogonalEdgeStyle;rounded=0;orthogonalLoop=1;jettySize=auto;html=1;entryX=1;entryY=0.5;entryDx=0;entryDy=0;" edge="1" parent="1" source="Ybw5_b32brrb-YPpIU1Y-9" target="Ybw5_b32brrb-YPpIU1Y-35">
          <mxGeometry relative="1" as="geometry" />
        </mxCell>
        <mxCell id="Ybw5_b32brrb-YPpIU1Y-9" value="tam giác vuông cân" style="shape=parallelogram;perimeter=parallelogramPerimeter;whiteSpace=wrap;html=1;fixedSize=1;" vertex="1" parent="1">
          <mxGeometry x="707" y="1075" width="120" height="60" as="geometry" />
        </mxCell>
        <mxCell id="Ybw5_b32brrb-YPpIU1Y-21" style="edgeStyle=orthogonalEdgeStyle;rounded=0;orthogonalLoop=1;jettySize=auto;html=1;" edge="1" parent="1" source="Ybw5_b32brrb-YPpIU1Y-11" target="Ybw5_b32brrb-YPpIU1Y-7">
          <mxGeometry relative="1" as="geometry" />
        </mxCell>
        <mxCell id="Ybw5_b32brrb-YPpIU1Y-31" style="edgeStyle=orthogonalEdgeStyle;rounded=0;orthogonalLoop=1;jettySize=auto;html=1;entryX=0.5;entryY=0;entryDx=0;entryDy=0;" edge="1" parent="1" source="Ybw5_b32brrb-YPpIU1Y-11" target="Ybw5_b32brrb-YPpIU1Y-12">
          <mxGeometry relative="1" as="geometry" />
        </mxCell>
        <mxCell id="Ybw5_b32brrb-YPpIU1Y-11" value="&lt;div style=&quot;background-color: rgb(255, 255, 255); font-family: Menlo, Monaco, &amp;quot;Courier New&amp;quot;, monospace; line-height: 18px;&quot;&gt;edge1*edge1+edge2*edge2 == edge3*edge3 || edge1*edge1+edge3*edge3 == edge2*edge2 || edge2*edge2 + edge3*edge3 == edge1*edge1&lt;/div&gt;" style="rhombus;whiteSpace=wrap;html=1;" vertex="1" parent="1">
          <mxGeometry x="30" y="510" width="600" height="320" as="geometry" />
        </mxCell>
        <mxCell id="Ybw5_b32brrb-YPpIU1Y-19" style="edgeStyle=orthogonalEdgeStyle;rounded=0;orthogonalLoop=1;jettySize=auto;html=1;" edge="1" parent="1" source="Ybw5_b32brrb-YPpIU1Y-12" target="Ybw5_b32brrb-YPpIU1Y-9">
          <mxGeometry relative="1" as="geometry" />
        </mxCell>
        <mxCell id="Ybw5_b32brrb-YPpIU1Y-32" style="edgeStyle=orthogonalEdgeStyle;rounded=0;orthogonalLoop=1;jettySize=auto;html=1;entryX=0.5;entryY=0;entryDx=0;entryDy=0;" edge="1" parent="1" source="Ybw5_b32brrb-YPpIU1Y-12" target="Ybw5_b32brrb-YPpIU1Y-13">
          <mxGeometry relative="1" as="geometry" />
        </mxCell>
        <mxCell id="Ybw5_b32brrb-YPpIU1Y-12" value="&lt;div style=&quot;background-color: rgb(255, 255, 255); font-family: Menlo, Monaco, &amp;quot;Courier New&amp;quot;, monospace; line-height: 18px;&quot;&gt;edge1*edge1+edge2*edge2 == edge3*edge3 || edge1*edge1+edge3*edge3 == edge2*edge2 || edge2*edge2 + edge3*edge3 == edge1*edge1 &amp;amp;&amp;amp; edge1 == edge2 || edge1 == edge3 || edge2 == edge3&lt;/div&gt;" style="rhombus;whiteSpace=wrap;html=1;" vertex="1" parent="1">
          <mxGeometry x="70" y="880" width="520" height="450" as="geometry" />
        </mxCell>
        <mxCell id="Ybw5_b32brrb-YPpIU1Y-20" style="edgeStyle=orthogonalEdgeStyle;rounded=0;orthogonalLoop=1;jettySize=auto;html=1;" edge="1" parent="1" source="Ybw5_b32brrb-YPpIU1Y-13" target="Ybw5_b32brrb-YPpIU1Y-15">
          <mxGeometry relative="1" as="geometry" />
        </mxCell>
        <mxCell id="Ybw5_b32brrb-YPpIU1Y-33" style="edgeStyle=orthogonalEdgeStyle;rounded=0;orthogonalLoop=1;jettySize=auto;html=1;entryX=0.5;entryY=0;entryDx=0;entryDy=0;" edge="1" parent="1" source="Ybw5_b32brrb-YPpIU1Y-13" target="Ybw5_b32brrb-YPpIU1Y-16">
          <mxGeometry relative="1" as="geometry" />
        </mxCell>
        <mxCell id="Ybw5_b32brrb-YPpIU1Y-13" value="&lt;div style=&quot;background-color: rgb(255, 255, 255); font-family: Menlo, Monaco, &amp;quot;Courier New&amp;quot;, monospace; line-height: 18px;&quot;&gt;edge1 == edge2 || edge1 == edge3 || edge2 == edge3&lt;/div&gt;" style="rhombus;whiteSpace=wrap;html=1;" vertex="1" parent="1">
          <mxGeometry x="145" y="1400" width="370" height="330" as="geometry" />
        </mxCell>
        <mxCell id="Ybw5_b32brrb-YPpIU1Y-49" style="edgeStyle=orthogonalEdgeStyle;rounded=0;orthogonalLoop=1;jettySize=auto;html=1;entryX=1;entryY=0.5;entryDx=0;entryDy=0;" edge="1" parent="1" source="Ybw5_b32brrb-YPpIU1Y-15" target="Ybw5_b32brrb-YPpIU1Y-35">
          <mxGeometry relative="1" as="geometry" />
        </mxCell>
        <mxCell id="Ybw5_b32brrb-YPpIU1Y-15" value="tam giác cân" style="shape=parallelogram;perimeter=parallelogramPerimeter;whiteSpace=wrap;html=1;fixedSize=1;" vertex="1" parent="1">
          <mxGeometry x="630" y="1535" width="120" height="60" as="geometry" />
        </mxCell>
        <mxCell id="Ybw5_b32brrb-YPpIU1Y-18" style="edgeStyle=orthogonalEdgeStyle;rounded=0;orthogonalLoop=1;jettySize=auto;html=1;" edge="1" parent="1" source="Ybw5_b32brrb-YPpIU1Y-16" target="Ybw5_b32brrb-YPpIU1Y-17">
          <mxGeometry relative="1" as="geometry" />
        </mxCell>
        <mxCell id="Ybw5_b32brrb-YPpIU1Y-37" style="edgeStyle=orthogonalEdgeStyle;rounded=0;orthogonalLoop=1;jettySize=auto;html=1;entryX=0.5;entryY=0;entryDx=0;entryDy=0;" edge="1" parent="1" source="Ybw5_b32brrb-YPpIU1Y-16" target="Ybw5_b32brrb-YPpIU1Y-36">
          <mxGeometry relative="1" as="geometry" />
        </mxCell>
        <mxCell id="Ybw5_b32brrb-YPpIU1Y-16" value="&lt;div style=&quot;background-color: rgb(255, 255, 255); font-family: Menlo, Monaco, &amp;quot;Courier New&amp;quot;, monospace; line-height: 18px;&quot;&gt;edge1+edge2&amp;gt;edge3 || edge1+edge3&amp;gt;edge2 || edge2+edge3&amp;gt;edge1&lt;/div&gt;" style="rhombus;whiteSpace=wrap;html=1;" vertex="1" parent="1">
          <mxGeometry x="140" y="1780" width="380" height="320" as="geometry" />
        </mxCell>
        <mxCell id="Ybw5_b32brrb-YPpIU1Y-48" style="edgeStyle=orthogonalEdgeStyle;rounded=0;orthogonalLoop=1;jettySize=auto;html=1;entryX=1;entryY=0.5;entryDx=0;entryDy=0;" edge="1" parent="1" source="Ybw5_b32brrb-YPpIU1Y-17" target="Ybw5_b32brrb-YPpIU1Y-35">
          <mxGeometry relative="1" as="geometry" />
        </mxCell>
        <mxCell id="Ybw5_b32brrb-YPpIU1Y-17" value="Tam giác thường" style="shape=parallelogram;perimeter=parallelogramPerimeter;whiteSpace=wrap;html=1;fixedSize=1;" vertex="1" parent="1">
          <mxGeometry x="630" y="1980" width="120" height="60" as="geometry" />
        </mxCell>
        <mxCell id="Ybw5_b32brrb-YPpIU1Y-23" value="Đ" style="text;html=1;align=center;verticalAlign=middle;resizable=0;points=[];autosize=1;strokeColor=none;fillColor=none;" vertex="1" parent="1">
          <mxGeometry x="520" y="330" width="30" height="30" as="geometry" />
        </mxCell>
        <mxCell id="Ybw5_b32brrb-YPpIU1Y-24" value="Đ" style="text;html=1;align=center;verticalAlign=middle;resizable=0;points=[];autosize=1;strokeColor=none;fillColor=none;" vertex="1" parent="1">
          <mxGeometry x="655" y="638" width="30" height="30" as="geometry" />
        </mxCell>
        <mxCell id="Ybw5_b32brrb-YPpIU1Y-25" value="Đ" style="text;html=1;align=center;verticalAlign=middle;resizable=0;points=[];autosize=1;strokeColor=none;fillColor=none;" vertex="1" parent="1">
          <mxGeometry x="630" y="1070" width="30" height="30" as="geometry" />
        </mxCell>
        <mxCell id="Ybw5_b32brrb-YPpIU1Y-26" value="Đ" style="text;html=1;align=center;verticalAlign=middle;resizable=0;points=[];autosize=1;strokeColor=none;fillColor=none;" vertex="1" parent="1">
          <mxGeometry x="555" y="1535" width="30" height="30" as="geometry" />
        </mxCell>
        <mxCell id="Ybw5_b32brrb-YPpIU1Y-27" value="Đ" style="text;html=1;align=center;verticalAlign=middle;resizable=0;points=[];autosize=1;strokeColor=none;fillColor=none;" vertex="1" parent="1">
          <mxGeometry x="570" y="1910" width="30" height="30" as="geometry" />
        </mxCell>
        <mxCell id="Ybw5_b32brrb-YPpIU1Y-35" value="End" style="ellipse;whiteSpace=wrap;html=1;" vertex="1" parent="1">
          <mxGeometry x="730" y="2320" width="120" height="80" as="geometry" />
        </mxCell>
        <mxCell id="Ybw5_b32brrb-YPpIU1Y-47" style="edgeStyle=orthogonalEdgeStyle;rounded=0;orthogonalLoop=1;jettySize=auto;html=1;entryX=0;entryY=0.5;entryDx=0;entryDy=0;" edge="1" parent="1" source="Ybw5_b32brrb-YPpIU1Y-36" target="Ybw5_b32brrb-YPpIU1Y-35">
          <mxGeometry relative="1" as="geometry" />
        </mxCell>
        <mxCell id="Ybw5_b32brrb-YPpIU1Y-36" value="Khong la tam giác" style="shape=parallelogram;perimeter=parallelogramPerimeter;whiteSpace=wrap;html=1;fixedSize=1;" vertex="1" parent="1">
          <mxGeometry x="280" y="2150" width="120" height="60" as="geometry" />
        </mxCell>
        <mxCell id="Ybw5_b32brrb-YPpIU1Y-39" value="S" style="text;html=1;align=center;verticalAlign=middle;resizable=0;points=[];autosize=1;strokeColor=none;fillColor=none;" vertex="1" parent="1">
          <mxGeometry x="335" y="2098" width="30" height="30" as="geometry" />
        </mxCell>
        <mxCell id="Ybw5_b32brrb-YPpIU1Y-40" value="S" style="text;html=1;align=center;verticalAlign=middle;resizable=0;points=[];autosize=1;strokeColor=none;fillColor=none;" vertex="1" parent="1">
          <mxGeometry x="345" y="1738" width="30" height="30" as="geometry" />
        </mxCell>
        <mxCell id="Ybw5_b32brrb-YPpIU1Y-41" value="S" style="text;html=1;align=center;verticalAlign=middle;resizable=0;points=[];autosize=1;strokeColor=none;fillColor=none;" vertex="1" parent="1">
          <mxGeometry x="335" y="1348" width="30" height="30" as="geometry" />
        </mxCell>
        <mxCell id="Ybw5_b32brrb-YPpIU1Y-42" value="S" style="text;html=1;align=center;verticalAlign=middle;resizable=0;points=[];autosize=1;strokeColor=none;fillColor=none;" vertex="1" parent="1">
          <mxGeometry x="325" y="838" width="30" height="30" as="geometry" />
        </mxCell>
        <mxCell id="Ybw5_b32brrb-YPpIU1Y-43" value="S" style="text;html=1;align=center;verticalAlign=middle;resizable=0;points=[];autosize=1;strokeColor=none;fillColor=none;" vertex="1" parent="1">
          <mxGeometry x="325" y="468" width="30" height="30" as="geometry" />
        </mxCell>
        <mxCell id="Ybw5_b32brrb-YPpIU1Y-51" value="" style="endArrow=classic;html=1;rounded=0;entryX=1;entryY=0.5;entryDx=0;entryDy=0;" edge="1" parent="1" target="Ybw5_b32brrb-YPpIU1Y-35">
          <mxGeometry width="50" height="50" relative="1" as="geometry">
            <mxPoint x="960" y="2360" as="sourcePoint" />
            <mxPoint x="1010" y="2320" as="targetPoint" />
          </mxGeometry>
        </mxCell>
        <mxCell id="Ybw5_b32brrb-YPpIU1Y-53" style="edgeStyle=orthogonalEdgeStyle;rounded=0;orthogonalLoop=1;jettySize=auto;html=1;entryX=0.833;entryY=1;entryDx=0;entryDy=0;entryPerimeter=0;" edge="1" parent="1" source="Ybw5_b32brrb-YPpIU1Y-7" target="Ybw5_b32brrb-YPpIU1Y-35">
          <mxGeometry relative="1" as="geometry" />
        </mxCell>
      </root>
    </mxGraphModel>
  </diagram>
</mxfile>
